<svg xmlns="http://www.w3.org/2000/svg" 
xmlns:xlink="http://www.w3.org/1999/xlink" width="1920" zoomAndPan="magnify" viewBox="0 0 1440 809.999993" height="1080" preserveAspectRatio="xMidYMid meet" version="1.0"><defs><g/><clipPath id="cc18f8eaaf"><path d="M 658.5 327 L 782.25 327 L 782.25 483 L 658.5 483 Z M 658.5 327 " clip-rule="nonzero"/></clipPath><clipPath id="eb4bae0755"><path d="M 658.503906 327 L 782.246094 327 L 782.246094 483 L 658.503906 483 Z M 658.503906 327 " clip-rule="nonzero"/></clipPath><clipPath id="46562048e0"><path d="M 720.375 327 L 782.246094 362.910156 L 782.246094 447.089844 L 720.375 483 L 658.503906 447.089844 L 658.503906 362.910156 L 720.375 327 " clip-rule="nonzero"/></clipPath></defs><g clip-path="url(#cc18f8eaaf)"><path fill="#09182f" d="M 720.375 327 L 782.246094 362.910156 L 782.246094 447.089844 L 720.375 483 L 658.503906 447.089844 L 658.503906 362.910156 L 720.375 327 " fill-opacity="1" fill-rule="nonzero"/></g><g clip-path="url(#eb4bae0755)"><g clip-path="url(#46562048e0)"><path stroke-linecap="butt" transform="matrix(0.75, 0, 0, 0.748145, 658.502901, 327.000004)" fill="none" stroke-linejoin="miter" d="M 82.496141 -0.00000474383 L 164.990942 47.998899 L 164.990942 160.516726 L 82.496141 208.51563 L 0.00134021 160.516726 L 0.00134021 47.998899 L 82.496141 -0.00000474383 " stroke="#64ffda" stroke-width="6" stroke-opacity="1" stroke-miterlimit="4"/></g></g><g fill="#64ffda" fill-opacity="1"><g transform="translate(705.304658, 416.249999)"><g><path d="M 25.0625 0 L 21.109375 -10.171875 L 8.09375 -10.171875 L 4.1875 0 L 0 0 L 12.828125 -32.984375 L 16.5625 -32.984375 L 29.34375 0 Z M 19.875 -13.84375 L 16.1875 -23.78125 C 16.09375 -24.03125 15.9375 -24.472656 15.71875 -25.109375 C 15.507812 -25.753906 15.304688 -26.421875 15.109375 -27.109375 C 14.910156 -27.804688 14.75 -28.335938 14.625 -28.703125 C 14.382812 -27.753906 14.132812 -26.828125 13.875 -25.921875 C 13.613281 -25.015625 13.390625 -24.300781 13.203125 -23.78125 L 9.46875 -13.84375 Z M 19.875 -13.84375 "/></g></g></g>
</svg>